Coordinates
version=1
nRows=5
nColumns=46
inDegrees=yes

Units are S.I. units (second, meters, Newtons, ...)
Angles are in degrees.

endheader
time	pelvis_tilt	pelvis_list	pelvis_rotation	pelvis_tx	pelvis_ty	pelvis_tz	bb_angle	bb_tx	bb_ty	bb_tz	hip_flexion_r	hip_adduction_r	hip_rotation_r	knee_angle_r	knee_angle_r_beta	ankle_angle_r	subtalar_angle_r	mtp_angle_r	crank_angle_r	hip_flexion_l	hip_adduction_l	hip_rotation_l	knee_angle_l	knee_angle_l_beta	ankle_angle_l	subtalar_angle_l	mtp_angle_l	crank_angle_l	lumbar_extension	lumbar_bending	lumbar_rotation	arm_flex_r	arm_add_r	arm_rot_r	elbow_flex_r	pro_sup_r	wrist_flex_r	wrist_dev_r	arm_flex_l	arm_add_l	arm_rot_l	elbow_flex_l	pro_sup_l	wrist_flex_l	wrist_dev_l
      5.00500000	    -15.44885440	      3.07733720	      8.08289019	      0.31329542	      1.25017595	     -0.23307314	      0.00000000	      0.50000000	      0.00000000	      0.25000000	     29.41043195	    -13.21140551	    -10.48382032	     44.52304234	      0.77707368	    -20.11242294	     -1.70150806	      0.00000000	      0.00000000	     69.43891718	     -2.96266418	     -3.00355852	     86.69683442	      1.51314521	     14.86047199	      6.58602520	      0.00000000	      0.00000000	    -61.63673903	     -5.16342994	      0.08339507	     70.35593257	    -17.08483061	     25.83757809	     30.03699880	     41.06444308	      0.00000000	      0.00000000	     83.11323694	      5.77839542	     53.45183095	     21.89590077	     39.91585190	      0.00000000	      0.00000000
      5.01000000	    -15.56089334	      2.54787901	      7.95508106	      0.31255488	      1.25142427	     -0.23291342	      0.00000000	      0.50000000	      0.00000000	      0.25000000	     30.76666727	    -12.84339462	    -10.02319775	     47.07853523	      0.82167545	    -20.19891835	     -2.33019779	      0.00000000	      0.00000000	     68.22819101	     -3.16581601	     -3.03682378	     84.06764461	      1.46725719	     15.71579213	      5.28205926	      0.00000000	      0.00000000	    -61.60529286	     -5.10379972	      0.66274241	     70.47016752	    -17.37900498	     25.80949056	     29.99410563	     41.05529564	      0.00000000	      0.00000000	     83.17909677	      5.87517413	     53.21603360	     22.13782289	     39.88256095	      0.00000000	      0.00000000
      5.01500000	    -15.71659271	      1.97754513	      7.81134629	      0.31186057	      1.25227962	     -0.23287122	      0.00000000	      0.50000000	      0.00000000	      0.25000000	     32.20890133	    -12.45261264	     -9.52305653	     49.60171607	      0.86571326	    -20.42705028	     -2.57069262	      0.00000000	      0.00000000	     67.03214550	     -3.38850136	     -3.04225480	     81.35604171	      1.41993079	     16.06006796	      4.12105351	      0.00000000	      0.00000000	    -61.48515101	     -4.98130283	      1.27078253	     70.50618632	    -17.67072297	     25.86709916	     29.99242923	     41.06821210	      0.00000000	      0.00000000	     83.18197751	      5.96641085	     52.87748915	     22.41524283	     39.82706570	      0.00000000	      0.00000000
      5.02000000	    -15.76566522	      1.25560324	      7.71994690	      0.31137481	      1.25277703	     -0.23310566	      0.00000000	      0.50000000	      0.00000000	      0.25000000	     33.49507403	    -11.99294202	     -9.33823912	     52.05408690	      0.90851521	    -20.60767093	     -2.72472730	      0.00000000	      0.00000000	     65.75418877	     -3.68151921	     -2.91836765	     78.69179375	      1.37343090	     16.47206129	      3.43737780	      0.00000000	      0.00000000	    -61.36840110	     -4.66143703	      1.92462855	     70.60411211	    -17.89256688	     25.98309468	     30.06306686	     41.09979711	      0.00000000	      0.00000000	     83.09853100	      5.98011641	     52.59053451	     22.59343037	     39.77400859	      0.00000000	      0.00000000
      5.02500000	    -15.88062375	      0.61845698	      7.62887851	      0.31089473	      1.25290662	     -0.23311617	      0.00000000	      0.50000000	      0.00000000	      0.25000000	     34.89596916	    -11.61774895	     -9.07559555	     54.52234062	      0.95159436	    -20.75867970	     -2.67849785	      0.00000000	      0.00000000	     64.48328575	     -3.96055428	     -2.90895798	     75.95698651	      1.32569950	     16.61846762	      2.59638969	      0.00000000	      0.00000000	    -61.22531672	     -4.45741854	      2.56898152	     70.47393269	    -19.09943815	     28.26248031	     30.96984811	     41.63874733	      0.00000000	      0.00000000	     82.65756270	      6.39284428	     49.76893020	     23.45264467	     39.03305239	      0.00000000	      0.00000000
